<svg width="126" height="48" viewBox="0 0 126 48" fill="none" xmlns="http://www.w3.org/2000/svg">
<path d="M54.5039 41.2623V33.5586H57.9027C59.3594 33.5586 60.0877 34.1604 60.0877 35.3642C60.0877 36.3271 59.3594 37.1697 57.9027 37.6512L60.5733 41.2623H59.238L56.6889 37.7716V37.1697C58.1455 36.929 58.8738 36.3271 58.8738 35.4845C58.8738 34.7623 58.5097 34.4012 57.66 34.4012H55.475V41.3827H54.5039V41.2623Z" fill="white"/>
<path d="M66.7626 33.439V34.2816H62.6354V36.9297H66.5198V37.7723H62.6354V40.5408H66.7626V41.3834H61.543V33.6797H66.7626V33.439Z" fill="white"/>
<path d="M68.5847 41.2618H67.4922L70.7696 33.5581H71.8621L75.261 41.2618H74.1685L73.1974 38.8544H70.6483L70.891 38.0118H72.8332L71.3766 34.5211L68.5847 41.2618Z" fill="white"/>
<path d="M77.4467 33.439V40.4205H81.5738V41.2631H76.4756V33.5593H77.4467V33.439Z" fill="white"/>
<path d="M90.5553 33.439V34.2816H86.4281V36.9297H90.3125V37.7723H86.4281V40.5408H90.6767V41.3834H85.457V33.6797H90.5553V33.439Z" fill="white"/>
<path d="M92.011 41.0216V40.0586C92.8607 40.2993 93.7105 40.5401 94.6815 40.5401C96.0168 40.5401 96.7451 40.0586 96.7451 39.0956C96.7451 38.253 96.2596 37.8919 95.2885 37.8919H94.3174C92.7394 37.8919 91.8896 37.1697 91.8896 35.7253C91.8896 34.2808 92.9821 33.5586 95.0457 33.5586C96.0168 33.5586 96.8665 33.679 97.5948 33.9197V34.8827C96.8665 34.6419 96.0168 34.4012 95.0457 34.4012C93.5891 34.4012 92.8607 34.8827 92.8607 35.8456C92.8607 36.6882 93.3463 37.0493 94.3174 37.0493H95.2885C96.9879 37.0493 97.8376 37.7716 97.8376 39.216C97.8376 40.7808 96.8665 41.5031 94.8029 41.5031C93.8318 41.2623 92.8607 41.1419 92.011 41.0216Z" fill="white"/>
<path d="M104.514 33.439V34.2816H102.086V41.2631H101.115V34.2816H98.6875V33.439H104.514Z" fill="white"/>
<path d="M105.12 41.2618H104.027L107.305 33.5581H108.397L111.796 41.2618H110.704L109.733 38.8544H107.183L107.426 38.0118H109.368L107.912 34.5211L105.12 41.2618Z" fill="white"/>
<path d="M117.381 33.439V34.2816H114.954V41.2631H113.982V34.2816H111.555V33.439H117.381Z" fill="white"/>
<path d="M123.696 33.439V34.2816H119.569V36.9297H123.453V37.7723H119.569V40.5408H123.817V41.3834H118.598V33.6797H123.696V33.439Z" fill="white"/>
<path d="M51.1076 44.6348L51.7145 45.8385L52.3215 44.6348H52.807L51.9573 46.1996V47.0422H51.4718V46.1996L50.6221 44.6348H51.1076Z" fill="white"/>
<path d="M55.2344 47.0422C55.113 47.0422 54.8702 47.0422 54.7488 46.9218C54.6274 46.8014 54.5061 46.8014 54.3847 46.6811C54.2633 46.5607 54.2633 46.4403 54.1419 46.32C54.1419 46.1996 54.0205 46.0792 54.0205 45.8385C54.0205 45.7181 54.0205 45.4774 54.1419 45.357C54.1419 45.2366 54.2633 45.1162 54.3847 44.9959C54.5061 44.8755 54.6274 44.7551 54.7488 44.7551C54.8702 44.6348 54.9916 44.6348 55.2344 44.6348C55.3558 44.6348 55.5985 44.6348 55.7199 44.7551C55.8413 44.8755 55.9627 44.8755 56.0841 44.9959C56.2055 45.1162 56.2055 45.2366 56.3269 45.357C56.3269 45.4774 56.4482 45.5977 56.4482 45.8385C56.4482 45.9588 56.4482 46.1996 56.3269 46.32C56.3269 46.4403 56.2055 46.5607 56.0841 46.6811C55.9627 46.8014 55.8413 46.9218 55.7199 46.9218C55.5985 47.0422 55.4772 47.0422 55.2344 47.0422ZM54.6274 45.8385C54.6274 45.9588 54.6274 46.0792 54.6274 46.0792C54.6274 46.1996 54.7488 46.32 54.7488 46.32C54.7488 46.4403 54.8702 46.4403 54.9916 46.4403C55.113 46.4403 55.113 46.5607 55.2344 46.5607C55.3558 46.5607 55.4772 46.5607 55.4772 46.4403C55.5985 46.4403 55.5985 46.32 55.7199 46.1996C55.7199 46.0792 55.8413 46.0792 55.8413 45.9588C55.8413 45.8385 55.8413 45.7181 55.8413 45.7181C55.8413 45.5977 55.8413 45.4774 55.8413 45.357C55.8413 45.2366 55.7199 45.1162 55.7199 45.1162C55.7199 44.9959 55.5985 44.9959 55.4772 44.9959C55.3558 44.9959 55.3558 44.8755 55.2344 44.8755C55.113 44.8755 54.9916 44.8755 54.9916 44.9959C54.8702 44.9959 54.8702 45.1162 54.7488 45.2366C54.7488 45.357 54.6274 45.357 54.6274 45.4774C54.6274 45.5977 54.6274 45.7181 54.6274 45.8385Z" fill="white"/>
<path d="M59.2416 46.5607C59.363 46.5607 59.4844 46.5607 59.4844 46.4403C59.6058 46.4403 59.6058 46.32 59.7272 46.32C59.7272 46.1996 59.8485 46.1996 59.8485 46.0792C59.8485 45.9588 59.8485 45.8385 59.8485 45.8385V44.6348H60.3341V45.8385C60.3341 45.9588 60.3341 46.1996 60.3341 46.32C60.3341 46.4403 60.2127 46.5607 60.0913 46.6811C59.9699 46.8014 59.8485 46.9218 59.7272 46.9218C59.6058 47.0422 59.4844 47.0422 59.2416 47.0422C58.9988 47.0422 58.8774 47.0422 58.7561 46.9218C58.6347 46.8014 58.5133 46.8014 58.3919 46.6811C58.2705 46.5607 58.2705 46.4403 58.2705 46.32C58.2705 46.1996 58.2705 46.0792 58.2705 45.8385V44.6348H58.7561V45.8385C58.7561 45.9588 58.7561 46.0792 58.7561 46.0792C58.7561 46.1996 58.7561 46.1996 58.8774 46.32C58.8774 46.4403 58.9988 46.4403 58.9988 46.4403C58.9988 46.5607 59.1202 46.5607 59.2416 46.5607Z" fill="white"/>
<path d="M62.0322 47.0422V44.6348H63.1247C63.2461 44.6348 63.3675 44.6348 63.4889 44.7551C63.6103 44.7551 63.6103 44.8755 63.7316 44.9959C63.853 45.1162 63.853 45.1162 63.853 45.2366C63.853 45.357 63.853 45.4774 63.853 45.4774C63.853 45.5977 63.853 45.7181 63.7316 45.9588C63.6103 46.0792 63.4889 46.1996 63.3675 46.1996L63.9744 47.0422H63.4889L63.0033 46.1996H62.5178V47.0422H62.0322ZM62.5178 45.8385H63.1247H63.2461C63.2461 45.8385 63.3675 45.8385 63.3675 45.7181C63.3675 45.7181 63.3675 45.5977 63.4889 45.5977V45.4774V45.357C63.4889 45.357 63.4889 45.2366 63.3675 45.2366L63.2461 45.1162H63.1247H62.5178V45.8385Z" fill="white"/>
<path d="M69.5565 44.9954H68.8281V46.9213H68.3426V44.9954H67.6143V44.6343H69.6778V44.9954H69.5565Z" fill="white"/>
<path d="M70.7705 47.0417L71.7416 44.6343H72.1058L73.0769 47.0417H72.5913L72.3485 46.4398H71.4988L71.2561 47.0417H70.7705ZM71.9844 45.1158L71.6202 46.0787H72.3485L71.9844 45.1158Z" fill="white"/>
<path d="M76.3569 46.8014C76.1142 47.0422 75.9928 47.0422 75.75 47.0422C75.6286 47.0422 75.5072 47.0422 75.2645 46.9218C75.1431 46.8014 75.0217 46.8014 74.9003 46.6811C74.7789 46.5607 74.7789 46.4403 74.6575 46.32C74.6575 46.1996 74.5361 45.9588 74.5361 45.8385C74.5361 45.7181 74.5361 45.4774 74.6575 45.357C74.6575 45.2366 74.7789 45.1162 74.9003 44.9959C75.0217 44.8755 75.1431 44.7551 75.2645 44.7551C75.3858 44.6348 75.5072 44.6348 75.75 44.6348C75.9928 44.6348 76.1142 44.6348 76.3569 44.7551C76.4783 44.8755 76.5997 44.9959 76.7211 45.1162L76.3569 45.357C76.3569 45.2366 76.2356 45.1162 76.1142 45.1162C75.9928 44.9959 75.8714 44.9959 75.75 44.9959C75.6286 44.9959 75.5072 44.9959 75.5072 45.1162C75.3858 45.1162 75.3858 45.2366 75.2645 45.2366C75.2645 45.357 75.1431 45.357 75.1431 45.4774C75.1431 45.5977 75.1431 45.7181 75.1431 45.8385C75.1431 45.9588 75.1431 46.0792 75.1431 46.1996C75.1431 46.32 75.2645 46.4403 75.2645 46.4403C75.3858 46.5607 75.3858 46.5607 75.5072 46.5607C75.6286 46.5607 75.6286 46.6811 75.75 46.6811C75.9928 46.6811 76.1142 46.5607 76.3569 46.32V46.1996H75.8714V45.8385H76.7211V47.0422H76.3569V46.8014Z" fill="white"/>
<path d="M78.4189 47.0417V44.6343H78.9045V46.5602H80.1184V46.9213H78.4189V47.0417Z" fill="white"/>
<path d="M81.8213 47.0417V44.6343H82.3068V47.0417H81.8213Z" fill="white"/>
<path d="M84.6076 45.4769V47.0417H84.1221V44.6343H84.4862L85.7001 46.1991V44.6343H86.1856V47.0417H85.8215L84.6076 45.4769Z" fill="white"/>
<path d="M89.8293 46.5614V46.9225H88.1299V44.5151H89.8293V44.8762H88.6154V45.4781H89.5865V45.9596H88.6154V46.5614H89.8293Z" fill="white"/>
<path d="M95.1704 45.2371C95.049 45.2371 95.1704 45.2371 95.1704 45.2371C95.049 45.1167 95.049 45.1167 94.9276 45.1167C94.9276 45.1167 94.8063 45.1167 94.6849 44.9964C94.5635 44.9964 94.5635 44.9964 94.4421 44.9964C94.3207 44.9964 94.1993 44.9963 94.1993 45.1167C94.0779 45.1167 94.0779 45.2371 94.0779 45.3575V45.4778C94.0779 45.4778 94.0779 45.5982 94.1993 45.5982C94.1993 45.5982 94.3207 45.5982 94.3207 45.7186C94.4421 45.7186 94.4421 45.7186 94.5635 45.8389C94.6849 45.8389 94.8062 45.9593 94.9276 45.9593C95.049 45.9593 95.049 46.0797 95.1704 46.0797C95.2918 46.0797 95.2918 46.2001 95.2918 46.3204C95.2918 46.4408 95.2918 46.4408 95.2918 46.5612C95.2918 46.6815 95.2918 46.8019 95.1704 46.9223C95.1704 47.0427 95.049 47.0427 94.9276 47.163C94.8062 47.163 94.8063 47.2834 94.6849 47.2834C94.5635 47.2834 94.4421 47.2834 94.3207 47.2834C94.1993 47.2834 93.9565 47.2834 93.8352 47.163C93.7138 47.163 93.471 47.0427 93.3496 46.9223L93.5924 46.5612C93.5924 46.5612 93.5924 46.5612 93.7138 46.6815C93.7138 46.6815 93.8352 46.8019 93.9565 46.8019C94.0779 46.8019 94.0779 46.9223 94.1993 46.9223C94.3207 46.9223 94.3207 46.9223 94.4421 46.9223C94.6849 46.9223 94.8062 46.8019 94.8062 46.6815V46.5612L94.6849 46.4408C94.6849 46.4408 94.5635 46.4408 94.4421 46.3204C94.3207 46.3204 94.3207 46.3204 94.1993 46.2001C94.0779 46.2001 93.9565 46.0797 93.9565 46.0797C93.8352 46.0797 93.8352 45.9593 93.7138 45.9593L93.5924 45.8389C93.5924 45.7186 93.5924 45.7186 93.5924 45.5982C93.5924 45.4778 93.5924 45.3575 93.7138 45.2371C93.7138 45.1167 93.8352 45.1167 93.9565 44.9964C94.0779 44.876 94.0779 44.876 94.1993 44.876C94.3207 44.876 94.4421 44.876 94.5635 44.876C94.6849 44.876 94.9276 44.876 95.049 44.9964C95.1704 44.9964 95.2918 45.1167 95.4132 45.2371H95.1704Z" fill="white"/>
<path d="M97.1133 47.0422V44.6348H98.0844C98.2058 44.6348 98.3272 44.6348 98.4485 44.7551C98.5699 44.7551 98.5699 44.8755 98.6913 44.9959C98.8127 45.1162 98.8127 45.1162 98.8127 45.2366C98.8127 45.357 98.8127 45.4774 98.8127 45.4774C98.8127 45.5977 98.8127 45.7181 98.8127 45.7181C98.8127 45.8385 98.6913 45.8385 98.6913 45.9588C98.5699 46.0792 98.5699 46.0792 98.4485 46.0792C98.3272 46.0792 98.2058 46.1996 98.0844 46.1996H97.4774V47.0422H97.1133ZM97.5988 45.8385H98.0844C98.2058 45.8385 98.2058 45.8385 98.3272 45.7181C98.3272 45.5977 98.4485 45.5977 98.4485 45.4774V45.357C98.4485 45.357 98.4485 45.2366 98.3272 45.2366C98.3272 45.2366 98.2058 45.2366 98.2058 45.1162H98.0844H97.5988V45.8385Z" fill="white"/>
<path d="M100.146 47.0417L101.117 44.6343H101.481L102.452 47.0417H101.966L101.724 46.4398H100.874L100.752 47.0417H100.146ZM101.359 45.1158L100.995 46.0787H101.724L101.359 45.1158Z" fill="white"/>
<path d="M103.911 45.8385C103.911 45.7181 103.911 45.5977 104.033 45.357C104.033 45.2366 104.154 45.1162 104.275 44.9959C104.397 44.8755 104.518 44.7551 104.639 44.7551C104.761 44.6348 105.004 44.6348 105.125 44.6348C105.368 44.6348 105.489 44.6348 105.732 44.7551C105.853 44.8755 105.975 44.9959 106.096 45.1162L105.611 45.357C105.611 45.2366 105.489 45.2366 105.489 45.2366L105.368 45.1162H105.246H105.125C105.004 45.1162 104.882 45.1162 104.882 45.2366C104.761 45.2366 104.761 45.357 104.639 45.4774C104.639 45.5977 104.518 45.5977 104.518 45.7181C104.518 45.8385 104.518 45.9588 104.518 45.9588C104.518 46.0792 104.518 46.1996 104.518 46.32C104.518 46.4403 104.639 46.5607 104.639 46.5607C104.639 46.6811 104.761 46.6811 104.882 46.6811C105.004 46.6811 105.004 46.8014 105.125 46.8014H105.246C105.246 46.8014 105.368 46.8014 105.368 46.6811L105.489 46.5607L105.611 46.4403L105.975 46.6811C105.975 46.8014 105.853 46.8014 105.853 46.9218C105.732 47.0422 105.732 47.0422 105.611 47.0422C105.489 47.0422 105.489 47.1625 105.368 47.1625C105.246 47.1625 105.125 47.1625 105.125 47.1625C105.004 47.1625 104.761 47.1626 104.639 47.0422C104.518 46.9218 104.397 46.9218 104.275 46.8014C104.154 46.6811 104.154 46.5607 104.033 46.4403C104.033 46.0792 103.911 45.9588 103.911 45.8385Z" fill="white"/>
<path d="M109.372 46.5614V46.9225H107.673V44.5151H109.372V44.8762H108.158V45.4781H109.251V45.9596H108.28V46.5614H109.372Z" fill="white"/>
<path d="M115.318 44.6355V47.0429H114.833V45.9596H113.74V46.9225H113.255V44.5151H113.74V45.4781H114.833V44.5151H115.318V44.6355Z" fill="white"/>
<path d="M118.845 46.5614V46.9225H117.146V44.5151H118.845V44.8762H117.631V45.4781H118.602V45.9596H117.631V46.5614H118.845Z" fill="white"/>
<path d="M120.661 47.0417V44.6343H121.754C121.875 44.6343 121.996 44.6343 122.118 44.7546C122.239 44.7546 122.239 44.875 122.361 44.9954C122.482 45.1158 122.482 45.1158 122.482 45.2361C122.482 45.3565 122.482 45.4769 122.482 45.4769C122.482 45.5972 122.482 45.7176 122.361 45.9584C122.239 46.0787 122.118 46.1991 121.996 46.1991L122.603 47.0417H122.118L121.632 46.1991H121.147V47.0417H120.661ZM121.147 45.838H121.754H121.875C121.875 45.838 121.996 45.838 121.996 45.7176C121.996 45.7176 121.996 45.5972 122.118 45.5972V45.4769V45.3565C122.118 45.3565 122.118 45.2361 121.996 45.2361L121.875 45.1158H121.754H121.147V45.838Z" fill="white"/>
<path d="M126.001 46.5614V46.9225H124.302V44.5151H126.001V44.8762H124.787V45.4781H125.758V45.9596H124.787V46.5614H126.001Z" fill="white"/>
<path d="M8.86125 46.3207V30.9133L36.1733 11.1725L43.6993 16.5892L51.2253 11.1725L36.1733 0.21875L0 26.4596V46.3207H8.86125Z" fill="white"/>
<path d="M38.3612 46.3188V30.9113L65.5519 11.1705H80.6039L65.5519 0.216797L29.5 26.4576V46.3188H38.3612Z" fill="white"/>
</svg>
