<svg width="148" height="56" viewBox="0 0 148 56" fill="none" xmlns="http://www.w3.org/2000/svg">
<path d="M64.0195 48.2136V39.1648H68.0118C69.7228 39.1648 70.5783 39.8717 70.5783 41.2856C70.5783 42.4167 69.7228 43.4064 68.0118 43.972L71.1486 48.2136H69.5802L66.586 44.1134V43.4064C68.297 43.1237 69.1525 42.4167 69.1525 41.427C69.1525 40.5787 68.7247 40.1545 67.7267 40.1545H65.1602V48.355H64.0195V48.2136Z" fill="#0BC0EB"/>
<path d="M78.4201 39.0234V40.0132H73.5723V43.1237H78.1349V44.1134H73.5723V47.3653H78.4201V48.3551H72.2891V39.3062H78.4201V39.0234Z" fill="#0BC0EB"/>
<path d="M80.5606 48.2129H79.2773L83.1271 39.1641H84.4103L88.4026 48.2129H87.1193L85.9787 45.3851H82.9845L83.2696 44.3954H85.5509L83.84 40.2952L80.5606 48.2129Z" fill="#0BC0EB"/>
<path d="M90.9688 39.0234V47.224H95.8166V48.2137H89.8281V39.1648H90.9688V39.0234Z" fill="#0BC0EB"/>
<path d="M106.366 39.0234V40.0132H101.519V43.1237H106.081V44.1134H101.519V47.3653H106.509V48.3551H100.378V39.3062H106.366V39.0234Z" fill="#0BC0EB"/>
<path d="M108.076 47.9301V46.799C109.074 47.0818 110.072 47.3646 111.213 47.3646C112.781 47.3646 113.637 46.799 113.637 45.6679C113.637 44.6782 113.067 44.254 111.926 44.254H110.785C108.932 44.254 107.934 43.4057 107.934 41.709C107.934 40.0124 109.217 39.1641 111.641 39.1641C112.781 39.1641 113.779 39.3054 114.635 39.5882V40.7193C113.779 40.4366 112.781 40.1538 111.641 40.1538C109.93 40.1538 109.074 40.7193 109.074 41.8504C109.074 42.8402 109.645 43.2643 110.785 43.2643H111.926C113.922 43.2643 114.92 44.1126 114.92 45.8093C114.92 47.6474 113.779 48.4957 111.356 48.4957C110.215 48.2129 109.074 48.0715 108.076 47.9301Z" fill="#0BC0EB"/>
<path d="M122.762 39.0234V40.0132H119.91V48.2137H118.77V40.0132H115.918V39.0234H122.762Z" fill="#0BC0EB"/>
<path d="M123.475 48.2129H122.191L126.041 39.1641H127.324L131.317 48.2129H130.033L128.893 45.3851H125.899L126.184 44.3954H128.465L126.754 40.2952L123.475 48.2129Z" fill="#0BC0EB"/>
<path d="M137.875 39.0234V40.0132H135.024V48.2137H133.883V40.0132H131.031V39.0234H137.875Z" fill="#0BC0EB"/>
<path d="M145.293 39.0234V40.0132H140.445V43.1237H145.008V44.1134H140.445V47.3653H145.436V48.3551H139.305V39.3062H145.293V39.0234Z" fill="#0BC0EB"/>
<path d="M60.0274 52.1725L60.7403 53.5864L61.4532 52.1725H62.0235L61.0254 54.0105V55.0002H60.4551V54.0105L59.457 52.1725H60.0274Z" fill="#0BC0EB"/>
<path d="M64.875 55.0002C64.7325 55.0002 64.4473 55.0002 64.3047 54.8589C64.1621 54.7175 64.0195 54.7175 63.877 54.5761C63.7344 54.4347 63.7344 54.2933 63.5918 54.1519C63.5918 54.0105 63.4492 53.8691 63.4492 53.5864C63.4492 53.445 63.4492 53.1622 63.5918 53.0208C63.5918 52.8794 63.7344 52.738 63.877 52.5966C64.0195 52.4553 64.1621 52.3139 64.3047 52.3139C64.4473 52.1725 64.5899 52.1725 64.875 52.1725C65.0176 52.1725 65.3028 52.1725 65.4454 52.3139C65.5879 52.4553 65.7305 52.4553 65.8731 52.5966C66.0157 52.738 66.0157 52.8794 66.1583 53.0208C66.1583 53.1622 66.3009 53.3036 66.3009 53.5864C66.3009 53.7278 66.3009 54.0105 66.1583 54.1519C66.1583 54.2933 66.0157 54.4347 65.8731 54.5761C65.7305 54.7175 65.5879 54.8589 65.4454 54.8589C65.3028 55.0002 65.1602 55.0002 64.875 55.0002ZM64.1621 53.5864C64.1621 53.7278 64.1621 53.8691 64.1621 53.8691C64.1621 54.0105 64.3047 54.1519 64.3047 54.1519C64.3047 54.2933 64.4473 54.2933 64.5899 54.2933C64.7325 54.2933 64.7325 54.4347 64.875 54.4347C65.0176 54.4347 65.1602 54.4347 65.1602 54.2933C65.3028 54.2933 65.3028 54.1519 65.4454 54.0105C65.4454 53.8691 65.5879 53.8691 65.5879 53.7278C65.5879 53.5864 65.5879 53.445 65.5879 53.445C65.5879 53.3036 65.5879 53.1622 65.5879 53.0208C65.5879 52.8794 65.4454 52.738 65.4454 52.738C65.4454 52.5966 65.3028 52.5966 65.1602 52.5966C65.0176 52.5966 65.0176 52.4553 64.875 52.4553C64.7325 52.4553 64.5899 52.4553 64.5899 52.5966C64.4473 52.5966 64.4473 52.738 64.3047 52.8794C64.3047 53.0208 64.1621 53.0208 64.1621 53.1622C64.1621 53.3036 64.1621 53.445 64.1621 53.5864Z" fill="#0BC0EB"/>
<path d="M69.5821 54.434C69.7246 54.434 69.8672 54.434 69.8672 54.2926C70.0098 54.2926 70.0098 54.1512 70.1524 54.1512C70.1524 54.0098 70.295 54.0098 70.295 53.8684C70.295 53.727 70.295 53.5856 70.295 53.5856V52.1718H70.8653V53.5856C70.8653 53.727 70.8653 54.0098 70.8653 54.1512C70.8653 54.2926 70.7227 54.434 70.5801 54.5753C70.4376 54.7167 70.295 54.8581 70.1524 54.8581C70.0098 54.9995 69.8672 54.9995 69.5821 54.9995C69.2969 54.9995 69.1543 54.9995 69.0117 54.8581C68.8692 54.7167 68.7266 54.7167 68.584 54.5753C68.4414 54.434 68.4414 54.2926 68.4414 54.1512C68.4414 54.0098 68.4414 53.8684 68.4414 53.5856V52.1718H69.0117V53.5856C69.0117 53.727 69.0117 53.8684 69.0117 53.8684C69.0117 54.0098 69.0117 54.0098 69.1543 54.1512C69.1543 54.2926 69.2969 54.2926 69.2969 54.2926C69.2969 54.434 69.4395 54.434 69.5821 54.434Z" fill="#0BC0EB"/>
<path d="M72.8594 55.0002V52.1725H74.1426C74.2852 52.1725 74.4278 52.1725 74.5704 52.3139C74.7129 52.3139 74.7129 52.4553 74.8555 52.5966C74.9981 52.738 74.9981 52.738 74.9981 52.8794C74.9981 53.0208 74.9981 53.1622 74.9981 53.1622C74.9981 53.3036 74.9981 53.445 74.8555 53.7278C74.7129 53.8691 74.5704 54.0105 74.4278 54.0105L75.1407 55.0002H74.5704L74 54.0105H73.4297V55.0002H72.8594ZM73.4297 53.5864H74.1426H74.2852C74.2852 53.5864 74.4278 53.5864 74.4278 53.445C74.4278 53.445 74.4278 53.3036 74.5704 53.3036V53.1622V53.0208C74.5704 53.0208 74.5704 52.8794 74.4278 52.8794L74.2852 52.738H74.1426H73.4297V53.5864Z" fill="#0BC0EB"/>
<path d="M81.7003 52.5966H80.8448V54.8589H80.2744V52.5966H79.4189V52.1725H81.8428V52.5966H81.7003Z" fill="#0BC0EB"/>
<path d="M83.126 55.0002L84.2666 52.1725H84.6944L85.835 55.0002H85.2647L84.9795 54.2933H83.9815L83.6963 55.0002H83.126ZM84.5518 52.738L84.1241 53.8691H84.9795L84.5518 52.738Z" fill="#0BC0EB"/>
<path d="M89.6856 54.7167C89.4004 54.9995 89.2579 54.9995 88.9727 54.9995C88.8301 54.9995 88.6875 54.9995 88.4024 54.8581C88.2598 54.7167 88.1172 54.7167 87.9746 54.5753C87.832 54.434 87.832 54.2926 87.6895 54.1512C87.6895 54.0098 87.5469 53.727 87.5469 53.5856C87.5469 53.4442 87.5469 53.1615 87.6895 53.0201C87.6895 52.8787 87.832 52.7373 87.9746 52.5959C88.1172 52.4545 88.2598 52.3131 88.4024 52.3131C88.5449 52.1718 88.6875 52.1718 88.9727 52.1718C89.2579 52.1718 89.4004 52.1718 89.6856 52.3131C89.8282 52.4545 89.9708 52.5959 90.1133 52.7373L89.6856 53.0201C89.6856 52.8787 89.543 52.7373 89.4004 52.7373C89.2579 52.5959 89.1153 52.5959 88.9727 52.5959C88.8301 52.5959 88.6875 52.5959 88.6875 52.7373C88.5449 52.7373 88.5449 52.8787 88.4024 52.8787C88.4024 53.0201 88.2598 53.0201 88.2598 53.1615C88.2598 53.3029 88.2598 53.4442 88.2598 53.5856C88.2598 53.727 88.2598 53.8684 88.2598 54.0098C88.2598 54.1512 88.4024 54.2926 88.4024 54.2926C88.5449 54.434 88.5449 54.434 88.6875 54.434C88.8301 54.434 88.8301 54.5753 88.9727 54.5753C89.2579 54.5753 89.4004 54.434 89.6856 54.1512V54.0098H89.1153V53.5856H90.1133V54.9995H89.6856V54.7167Z" fill="#0BC0EB"/>
<path d="M92.1094 54.9995V52.1718H92.6797V54.434H94.1055V54.8581H92.1094V54.9995Z" fill="#0BC0EB"/>
<path d="M96.1006 55.0002V52.1725H96.6709V55.0002H96.1006Z" fill="#0BC0EB"/>
<path d="M99.3789 53.1615V54.9995H98.8086V52.1718H99.2363L100.662 54.0098V52.1718H101.232V54.9995H100.805L99.3789 53.1615Z" fill="#0BC0EB"/>
<path d="M105.511 54.4347V54.8589H103.515V52.0311H105.511V52.4553H104.085V53.1622H105.226V53.7278H104.085V54.4347H105.511Z" fill="#0BC0EB"/>
<path d="M111.783 52.8791C111.641 52.8791 111.783 52.8791 111.783 52.8791C111.641 52.7377 111.641 52.7377 111.498 52.7377C111.498 52.7377 111.356 52.7377 111.213 52.5963C111.07 52.5963 111.07 52.5963 110.928 52.5963C110.785 52.5963 110.643 52.5963 110.643 52.7377C110.5 52.7377 110.5 52.8791 110.5 53.0205V53.1619C110.5 53.1619 110.5 53.3033 110.643 53.3033C110.643 53.3033 110.785 53.3033 110.785 53.4447C110.928 53.4447 110.928 53.4447 111.07 53.5861C111.213 53.5861 111.356 53.7275 111.498 53.7275C111.641 53.7275 111.641 53.8688 111.783 53.8688C111.926 53.8688 111.926 54.0102 111.926 54.1516C111.926 54.293 111.926 54.293 111.926 54.4344C111.926 54.5758 111.926 54.7172 111.783 54.8586C111.783 54.9999 111.641 54.9999 111.498 55.1413C111.356 55.1413 111.356 55.2827 111.213 55.2827C111.07 55.2827 110.928 55.2827 110.785 55.2827C110.643 55.2827 110.357 55.2827 110.215 55.1413C110.072 55.1413 109.787 54.9999 109.645 54.8586L109.93 54.4344C109.93 54.4344 109.93 54.4344 110.072 54.5758C110.072 54.5758 110.215 54.7172 110.357 54.7172C110.5 54.7172 110.5 54.8586 110.643 54.8586C110.785 54.8586 110.785 54.8586 110.928 54.8586C111.213 54.8586 111.356 54.7172 111.356 54.5758V54.4344L111.213 54.293C111.213 54.293 111.07 54.293 110.928 54.1516C110.785 54.1516 110.785 54.1516 110.643 54.0102C110.5 54.0102 110.357 53.8688 110.357 53.8688C110.215 53.8688 110.215 53.7275 110.072 53.7275L109.93 53.5861C109.93 53.4447 109.93 53.4447 109.93 53.3033C109.93 53.1619 109.93 53.0205 110.072 52.8791C110.072 52.7377 110.215 52.7377 110.357 52.5963C110.5 52.455 110.5 52.455 110.643 52.455C110.785 52.455 110.928 52.455 111.07 52.455C111.213 52.455 111.498 52.455 111.641 52.5963C111.783 52.5963 111.926 52.7377 112.068 52.8791H111.783Z" fill="#0BC0EB"/>
<path d="M114.065 55.0002V52.1725H115.206C115.349 52.1725 115.491 52.1725 115.634 52.3139C115.776 52.3139 115.776 52.4553 115.919 52.5966C116.062 52.738 116.062 52.738 116.062 52.8794C116.062 53.0208 116.062 53.1622 116.062 53.1622C116.062 53.3036 116.062 53.445 116.062 53.445C116.062 53.5864 115.919 53.5864 115.919 53.7278C115.776 53.8691 115.776 53.8691 115.634 53.8691C115.491 53.8691 115.349 54.0105 115.206 54.0105H114.493V55.0002H114.065ZM114.636 53.5864H115.206C115.349 53.5864 115.349 53.5864 115.491 53.445C115.491 53.3036 115.634 53.3036 115.634 53.1622V53.0208C115.634 53.0208 115.634 52.8794 115.491 52.8794C115.491 52.8794 115.349 52.8794 115.349 52.738H115.206H114.636V53.5864Z" fill="#0BC0EB"/>
<path d="M117.629 54.9995L118.77 52.1718H119.197L120.338 54.9995H119.768L119.482 54.2926H118.484L118.342 54.9995H117.629ZM119.055 52.7373L118.627 53.8684H119.482L119.055 52.7373Z" fill="#0BC0EB"/>
<path d="M122.051 53.5864C122.051 53.445 122.051 53.3036 122.193 53.0208C122.193 52.8794 122.336 52.738 122.479 52.5966C122.621 52.4553 122.764 52.3139 122.906 52.3139C123.049 52.1725 123.334 52.1725 123.477 52.1725C123.762 52.1725 123.904 52.1725 124.19 52.3139C124.332 52.4553 124.475 52.5966 124.617 52.738L124.047 53.0208C124.047 52.8794 123.904 52.8794 123.904 52.8794L123.762 52.738H123.619H123.477C123.334 52.738 123.191 52.738 123.191 52.8794C123.049 52.8794 123.049 53.0208 122.906 53.1622C122.906 53.3036 122.764 53.3036 122.764 53.445C122.764 53.5864 122.764 53.7278 122.764 53.7278C122.764 53.8691 122.764 54.0105 122.764 54.1519C122.764 54.2933 122.906 54.4347 122.906 54.4347C122.906 54.5761 123.049 54.5761 123.191 54.5761C123.334 54.5761 123.334 54.7175 123.477 54.7175H123.619C123.619 54.7175 123.762 54.7175 123.762 54.5761L123.904 54.4347L124.047 54.2933L124.475 54.5761C124.475 54.7175 124.332 54.7175 124.332 54.8589C124.189 55.0002 124.19 55.0002 124.047 55.0002C123.904 55.0002 123.904 55.1416 123.762 55.1416C123.619 55.1416 123.477 55.1416 123.477 55.1416C123.334 55.1416 123.049 55.1416 122.906 55.0002C122.764 54.8589 122.621 54.8589 122.479 54.7175C122.336 54.5761 122.336 54.4347 122.193 54.2933C122.193 53.8691 122.051 53.7278 122.051 53.5864Z" fill="#0BC0EB"/>
<path d="M128.465 54.4347V54.8589H126.469V52.0311H128.465V52.4553H127.039V53.1622H128.322V53.7278H127.182V54.4347H128.465Z" fill="#0BC0EB"/>
<path d="M135.451 52.1725V55.0003H134.881V53.7278H133.598V54.8589H133.027V52.0311H133.598V53.1622H134.881V52.0311H135.451V52.1725Z" fill="#0BC0EB"/>
<path d="M139.59 54.4347V54.8589H137.594V52.0311H139.59V52.4553H138.164V53.1622H139.305V53.7278H138.164V54.4347H139.59Z" fill="#0BC0EB"/>
<path d="M141.727 55.0002V52.1725H143.01C143.152 52.1725 143.295 52.1725 143.438 52.3139C143.58 52.3139 143.58 52.4553 143.723 52.5966C143.865 52.738 143.865 52.738 143.865 52.8794C143.865 53.0208 143.865 53.1622 143.865 53.1622C143.865 53.3036 143.865 53.445 143.723 53.7278C143.58 53.8691 143.438 54.0105 143.295 54.0105L144.008 55.0002H143.438L142.867 54.0105H142.297V55.0002H141.727ZM142.297 53.5864H143.01H143.152C143.152 53.5864 143.295 53.5864 143.295 53.445C143.295 53.445 143.295 53.3036 143.438 53.3036V53.1622V53.0208C143.438 53.0208 143.438 52.8794 143.295 52.8794L143.152 52.738H143.01H142.297V53.5864Z" fill="#0BC0EB"/>
<path d="M148 54.4347V54.8589H146.004V52.0311H148V52.4553H146.574V53.1622H147.715V53.7278H146.574V54.4347H148Z" fill="#0BC0EB"/>
<path d="M10.4085 54.1517V36.054L42.4894 12.8663L51.3295 19.2288L60.1696 12.8663L42.4894 0L0 30.8226V54.1517H10.4085Z" fill="#4358F6"/>
<path d="M45.0569 54.1517V36.054L76.9953 12.8663H94.6754L76.9953 0L34.6484 30.8226V54.1517H45.0569Z" fill="#4358F6"/>
</svg>
